<?xml version="1.0" standalone="no"?>
<!DOCTYPE svg PUBLIC "-//W3C//DTD SVG 20010904//EN"
 "http://www.w3.org/TR/2001/REC-SVG-20010904/DTD/svg10.dtd">
<svg version="1.0" xmlns="http://www.w3.org/2000/svg"
 width="300.000000pt" height="236.000000pt" viewBox="0 0 300.000000 236.000000"
 preserveAspectRatio="xMidYMid meet">
<metadata>
Created by potrace 1.10, written by Peter Selinger 2001-2011
</metadata>
<g transform="translate(0.000000,236.000000) scale(0.100000,-0.100000)"
fill="#000000" stroke="none">
<path d="M1322 2338 c-7 -7 -11 -32 -11 -57 l2 -46 7 43 c7 46 23 64 48 54 10
-3 13 -1 8 6 -9 15 -39 15 -54 0z"/>
<path d="M1349 2299 c-1 -13 -1 -26 -1 -29 0 -3 3 -22 6 -42 l7 -38 -38 0
c-21 -1 -65 -7 -98 -15 -120 -29 -211 -12 -244 47 -19 32 -27 35 -39 11 -28
-55 -19 -161 18 -213 18 -25 18 -29 4 -34 -29 -11 -126 -7 -118 5 4 7 1 10 -7
7 -8 -3 -15 -12 -17 -22 -2 -9 0 -15 5 -14 4 2 22 -2 38 -9 17 -6 39 -14 49
-17 17 -6 14 -11 -23 -42 -23 -20 -52 -57 -65 -83 -59 -116 -61 -297 -4 -375
18 -25 19 -31 6 -40 -26 -20 -48 -60 -48 -87 0 -26 -2 -26 -77 -33 -43 -4
-199 -20 -348 -37 -241 -27 -272 -32 -293 -52 -18 -17 -22 -29 -18 -52 73
-413 118 -643 132 -679 3 -9 10 -16 15 -16 5 0 9 -6 9 -14 0 -15 62 -67 283
-234 l147 -113 43 11 c23 7 102 32 175 57 74 24 135 43 137 41 2 -2 -5 -28
-15 -58 -24 -69 -24 -80 -2 -80 10 0 22 -4 27 -9 11 -10 70 -20 170 -28 88 -7
375 38 375 59 0 11 68 10 72 -2 2 -5 50 -19 108 -30 145 -29 413 -34 450 -7
13 9 32 17 42 17 10 0 18 7 18 15 0 8 -7 15 -15 15 -9 0 -18 12 -22 30 -3 17
-10 33 -14 36 -5 3 -9 16 -9 29 0 42 -60 92 -127 105 -107 23 -118 27 -114 41
16 60 21 91 21 137 0 52 0 52 23 41 63 -35 168 -27 273 21 63 28 75 45 52 68
-18 18 9 42 46 42 43 0 100 41 131 94 20 34 34 45 68 55 48 15 120 54 148 82
28 28 25 75 -7 92 l-26 14 30 12 c42 18 64 44 67 83 2 18 4 33 5 33 1 0 3 16
4 37 2 26 14 49 43 82 80 91 82 187 6 276 -88 103 -220 107 -314 10 -81 -83
-86 -180 -14 -271 32 -40 35 -50 35 -111 0 -79 11 -107 51 -133 16 -11 29 -22
29 -26 0 -3 -21 -14 -47 -25 -42 -17 -51 -18 -76 -6 -16 8 -31 20 -34 29 -3 8
-16 18 -29 23 l-22 9 19 38 c23 45 24 86 3 107 -23 24 -57 19 -86 -11 -26 -28
-88 -147 -88 -170 0 -6 -15 -21 -33 -32 -40 -24 -57 -58 -57 -111 0 -33 -5
-41 -36 -61 -20 -12 -49 -22 -63 -22 -26 0 -111 48 -111 64 0 4 22 22 50 40
46 30 100 92 100 115 0 6 16 18 35 27 47 22 209 179 229 222 19 38 21 117 5
148 -6 12 -20 32 -31 43 -19 21 -19 22 7 69 19 36 25 63 25 109 0 94 -18 185
-47 239 -26 46 -86 110 -113 119 -9 3 -4 15 14 42 28 42 34 94 16 142 l-11 27
-27 -26 c-25 -24 -90 -46 -135 -47 -10 0 -47 31 -83 69 -46 49 -82 77 -127 97
-61 28 -66 29 -232 29 -177 0 -193 3 -242 48 l-23 20 -1 -24z m163 -88 c35 0
87 4 117 8 104 15 225 -23 294 -93 38 -37 67 -93 67 -127 0 -25 20 -25 27 0 4
15 18 21 66 26 34 4 73 12 86 17 13 4 25 7 28 5 8 -9 -29 -77 -53 -96 -27 -21
-70 -29 -59 -11 3 6 2 10 -4 10 -6 0 -15 -9 -21 -20 -10 -18 -8 -20 30 -20
101 0 200 -98 215 -212 l6 -43 -18 33 c-17 30 -119 109 -129 99 -2 -2 20 -28
50 -58 80 -81 121 -212 81 -265 -14 -18 -14 -18 -15 11 -1 77 -91 193 -186
241 -47 24 -62 38 -96 96 -22 38 -43 67 -45 64 -3 -3 7 -30 21 -62 14 -31 26
-58 26 -60 0 -10 -24 -2 -50 17 -24 18 -37 21 -79 15 -28 -4 -51 -4 -51 -1 0
3 7 16 15 29 21 32 36 128 25 163 -8 26 -15 15 -10 -16 5 -35 -26 -106 -65
-149 -89 -98 -211 -131 -370 -98 -92 19 -120 36 -59 36 87 0 185 76 214 166
20 59 5 60 -22 2 -58 -121 -180 -163 -359 -122 -38 8 -69 19 -69 24 0 8 65 20
111 20 14 0 34 7 45 16 19 15 19 16 -1 9 -11 -4 -29 -9 -40 -12 -18 -4 -18 -2
4 16 33 29 21 36 -20 12 -19 -10 -61 -25 -94 -32 -33 -7 -63 -18 -67 -23 -10
-15 97 -55 152 -56 84 -2 90 -19 7 -19 -141 -2 -268 -81 -328 -206 -16 -33
-29 -66 -29 -73 0 -7 -4 -10 -10 -7 -5 3 -10 36 -10 73 0 83 33 147 111 215
53 46 60 65 20 52 -12 -3 -18 -11 -15 -17 4 -6 -2 -8 -17 -3 -17 4 -20 3 -10
-3 10 -7 4 -15 -27 -32 -21 -12 -49 -39 -60 -59 -18 -30 -22 -32 -22 -14 0 29
44 128 74 168 33 43 109 81 191 94 93 16 129 28 150 51 18 19 17 20 -7 20 -14
0 -35 -9 -48 -20 -55 -48 -147 -14 -190 71 -31 61 -23 76 13 23 17 -26 43 -54
57 -62 23 -13 23 -13 -2 7 -27 22 -88 113 -88 131 0 6 14 1 30 -12 40 -29 132
-35 223 -14 87 20 164 20 234 0 62 -18 79 -13 34 10 -37 20 -101 75 -101 87 0
5 13 3 30 -6 17 -9 54 -15 92 -14z m405 -449 c8 -5 -10 -13 -46 -20 -69 -15
-165 -74 -207 -129 -15 -20 -38 -62 -50 -92 -16 -39 -29 -57 -43 -59 -15 -2
-21 2 -21 15 0 35 -49 122 -92 164 -24 23 -35 39 -26 36 86 -29 178 -16 297
42 45 22 98 42 119 44 20 2 42 4 47 5 6 1 16 -2 22 -6z m-570 -76 c94 -47 182
-176 184 -269 0 -30 1 -30 10 -9 7 18 15 23 36 20 35 -4 37 -32 3 -36 -36 -5
-47 -18 -55 -59 -5 -27 -9 -33 -16 -22 -7 11 -9 10 -10 -6 -1 -39 -7 -54 -33
-82 -24 -26 -30 -37 -23 -47 4 -7 -36 -46 -43 -41 -4 3 -30 -8 -56 -23 -43
-24 -60 -27 -134 -27 -92 0 -144 18 -204 73 l-30 27 16 -25 c8 -14 43 -40 77
-57 53 -28 73 -33 132 -33 43 0 87 7 119 19 27 11 48 15 45 11 -6 -9 -81 -35
-132 -45 -49 -10 -142 14 -196 49 -123 82 -181 235 -142 372 29 105 114 195
215 229 66 22 174 14 237 -19z m706 14 c92 -34 170 -119 198 -212 16 -55 12
-169 -7 -218 -10 -24 -20 -38 -22 -31 -3 8 -11 3 -22 -14 -10 -16 -16 -33 -14
-40 7 -17 -70 -84 -124 -107 -58 -26 -197 -22 -252 7 -69 36 -116 84 -153 156
-38 73 -46 125 -24 148 10 11 10 13 0 7 -20 -11 -16 45 7 108 34 89 116 169
209 202 54 20 143 17 204 -6z m676 -190 c47 -23 77 -60 92 -110 16 -54 4 -102
-42 -160 -22 -27 -44 -61 -49 -75 -12 -30 -40 -33 -40 -4 0 11 16 57 35 101
19 44 33 84 30 89 -10 15 -45 10 -52 -8 -5 -14 -8 -13 -14 5 -12 31 -64 31
-73 0 l-7 -23 -9 23 c-12 27 -50 30 -50 3 0 -10 7 -37 15 -60 8 -22 18 -63 23
-91 8 -45 8 -50 -9 -50 -12 0 -21 10 -25 28 -4 15 -18 42 -31 60 -59 79 -64
142 -17 214 47 73 145 98 223 58z m-1869 -182 c0 -24 11 -66 25 -96 26 -57 72
-122 86 -122 13 0 57 -47 62 -67 4 -14 5 -13 6 5 1 27 11 28 41 2 13 -11 29
-20 36 -20 7 0 22 -16 34 -35 22 -36 57 -52 87 -41 10 4 26 -3 44 -20 15 -15
52 -35 81 -45 29 -10 44 -19 33 -20 -14 0 -12 -3 10 -10 18 -5 31 -5 35 1 4 6
67 9 157 8 83 -2 146 0 140 4 -11 7 16 12 65 12 9 0 15 3 12 7 -2 4 4 10 15
14 10 3 31 17 45 32 23 23 29 25 52 14 23 -10 30 -8 59 16 19 16 34 35 34 43
1 16 81 65 81 49 0 -5 -4 -9 -10 -9 -5 0 -12 -17 -16 -37 -4 -21 -12 -49 -19
-63 -16 -30 -149 -160 -164 -160 -19 0 -12 23 16 54 15 17 7 12 -17 -12 -25
-23 -62 -54 -84 -68 -36 -23 -38 -24 -33 -5 5 19 5 19 -30 0 -36 -20 -56 -18
-35 3 15 15 16 52 2 43 -6 -4 -8 -10 -5 -15 8 -13 -66 -66 -102 -73 -43 -8
-89 7 -135 43 -26 21 -38 26 -38 16 0 -8 6 -17 13 -19 7 -3 4 -6 -6 -6 -11 -1
-33 9 -49 21 l-31 21 18 -26 c16 -24 16 -27 1 -27 -9 0 -16 4 -16 8 0 12 -59
44 -87 47 -25 2 -113 86 -113 106 0 5 -4 9 -10 9 -5 0 -10 -8 -10 -17 0 -22
-37 35 -46 72 -4 15 -13 25 -24 25 -26 0 -65 35 -84 73 -11 25 -24 36 -46 40
-69 14 -140 128 -124 200 16 75 44 90 44 25z m1461 10 c18 -44 14 -99 -10
-147 -24 -46 -78 -91 -109 -91 -14 0 -22 -6 -22 -17 0 -18 -79 -98 -88 -89 -3
3 2 14 11 24 10 10 17 24 17 31 0 13 50 60 65 61 15 1 81 118 94 165 6 22 11
52 11 68 0 36 15 34 31 -5z m269 -14 c0 -13 8 -15 70 -18 14 -1 35 8 48 18 28
25 28 17 -2 -42 -13 -26 -29 -66 -36 -89 -9 -31 -19 -43 -32 -43 -13 0 -18 8
-18 28 -1 15 -10 52 -21 82 -32 88 -33 94 -21 86 7 -4 12 -14 12 -22z m-990
-26 c39 -160 159 -263 315 -275 41 -3 75 -9 75 -13 0 -4 -9 -15 -21 -25 -17
-16 -24 -17 -52 -7 -26 10 -33 9 -40 -3 -36 -66 -107 -85 -307 -85 -182 0
-232 12 -280 66 -29 33 -31 34 -55 18 -23 -15 -25 -15 -52 13 l-28 28 77 6
c113 9 186 52 255 147 33 47 54 86 58 114 9 52 12 58 30 58 8 0 19 -18 25 -42z
m-816 -64 c11 -29 7 -31 -76 -38 -46 -3 -96 -9 -113 -13 -27 -6 -29 -4 -17 10
8 9 11 21 8 26 -6 10 22 17 94 24 81 8 98 7 104 -9z m-237 -11 c-12 -3 -17
-11 -14 -23 4 -16 -11 -19 -152 -34 -263 -28 -241 -23 -235 -54 2 -15 20 -112
39 -217 19 -104 42 -232 52 -283 9 -50 21 -92 27 -92 6 0 118 22 251 49 380
78 420 85 438 78 28 -11 21 -37 -10 -37 -16 0 -134 -23 -263 -50 -379 -82
-441 -93 -450 -84 -9 10 -60 267 -106 532 -21 126 -25 165 -16 171 7 4 97 16
200 25 103 10 189 20 191 22 2 2 18 3 35 3 19 -1 24 -3 13 -6z m328 -130 c83
-58 82 -55 89 -155 4 -51 11 -113 16 -137 6 -36 5 -46 -11 -62 -11 -11 -19
-30 -19 -44 0 -21 -5 -25 -27 -25 -16 0 -169 -29 -341 -64 -171 -35 -312 -60
-312 -57 0 4 -22 129 -50 278 -27 149 -50 276 -50 281 0 11 25 15 350 47 140
14 259 27 265 29 5 1 22 -14 37 -35 15 -20 39 -45 53 -56z m-740 -229 c40
-225 51 -299 39 -269 -2 6 -24 123 -49 260 -25 138 -48 261 -51 275 -4 22 -3
23 6 5 5 -11 30 -133 55 -271z m2528 256 c39 0 67 -4 67 -10 0 -17 -172 -8
-178 9 -3 10 1 12 19 8 13 -4 54 -7 92 -7z m-275 -30 c2 -13 -11 -55 -29 -93
-31 -63 -35 -68 -59 -62 -14 4 -26 8 -28 9 -1 2 9 29 24 62 47 106 84 140 92
84z m268 -10 c36 0 64 -4 64 -10 0 -11 -118 -14 -144 -4 -9 3 -16 11 -16 16 0
6 7 7 16 4 9 -3 45 -6 80 -6z m52 -45 c13 -13 -12 -17 -77 -10 -39 4 -71 12
-71 17 0 11 137 5 148 -7z m-1680 -175 c7 -62 11 -114 9 -117 -3 -2 -11 3 -19
11 -9 9 -18 46 -22 98 -4 46 -9 101 -12 123 -5 40 -5 40 13 19 14 -15 22 -51
31 -134z m1627 141 c3 -5 1 -12 -5 -16 -13 -8 -50 3 -50 16 0 12 47 12 55 0z
m-1585 -76 c11 -25 32 -53 47 -62 45 -29 93 -66 93 -73 0 -4 -27 -28 -59 -53
-44 -35 -61 -43 -68 -34 -5 6 -15 57 -22 112 -7 55 -15 112 -18 128 -8 41 5
32 27 -18z m1340 10 c30 -36 -20 -135 -67 -135 l-26 0 22 24 c19 20 22 32 17
59 -4 19 -4 42 0 51 8 20 38 21 54 1z m266 -20 c9 -22 -9 -39 -80 -74 -83 -40
-93 -40 -88 3 4 30 10 37 60 60 65 29 100 33 108 11z m-368 -21 c24 -16 29
-48 10 -60 -7 -4 -29 -7 -50 -5 -27 1 -38 -2 -38 -12 0 -8 9 -17 20 -20 11 -3
24 -17 30 -31 5 -14 14 -26 20 -26 6 0 6 7 -2 20 -19 31 -5 32 47 4 31 -16 60
-24 77 -22 37 6 35 -4 -7 -40 -34 -31 -92 -49 -119 -39 -9 4 -16 -3 -20 -19
-4 -14 -12 -24 -18 -22 -32 11 -82 161 -72 216 11 60 75 89 122 56z m172 -9
c22 -27 -30 -125 -66 -125 -24 0 -23 16 1 65 14 27 25 54 25 62 0 18 25 17 40
-2z m-1231 -151 c-22 -36 -20 -44 16 -57 6 -3 -1 -16 -15 -31 -16 -18 -23 -37
-22 -56 3 -35 2 -36 -47 -11 -75 39 -83 75 -26 113 22 15 51 38 64 52 38 40
57 34 30 -10z m687 15 c10 -12 32 -28 49 -36 16 -8 38 -25 47 -37 15 -18 18
-19 18 -3 0 9 4 17 9 17 5 0 16 3 25 6 11 4 16 1 16 -10 0 -24 38 -97 67 -128
l25 -26 -56 -12 c-58 -12 -96 -8 -153 16 -27 10 -33 19 -33 43 0 17 -11 42
-27 61 -21 26 -24 33 -12 41 8 5 17 9 21 9 10 0 -3 38 -18 51 -8 6 -14 15 -14
20 0 15 16 10 36 -12z m-597 -63 c-5 -25 -7 -77 -5 -116 5 -86 -7 -88 -47 -5
l-28 58 21 21 c25 28 25 43 0 51 -19 6 -19 8 -5 36 15 28 17 29 44 14 27 -14
28 -16 20 -59z m547 48 c16 -24 16 -26 -5 -41 l-22 -15 22 -24 c22 -23 22 -24
5 -76 -9 -29 -19 -74 -22 -100 -4 -27 -11 -48 -15 -48 -10 0 -12 313 -2 323
12 12 22 7 39 -19z m294 -41 c11 -27 35 -65 51 -86 34 -42 32 -61 -3 -31 -13
10 -17 12 -10 4 6 -8 12 -18 12 -22 0 -4 -6 -8 -12 -8 -19 0 -69 67 -88 118
-19 49 -19 49 27 71 1 1 11 -20 23 -46z m-1131 -8 c22 -24 41 -49 41 -54 0
-12 -41 -21 -67 -15 -41 11 -62 114 -23 114 4 0 26 -20 49 -45z m706 -9 c-15
-25 -32 -49 -37 -53 -9 -5 -67 52 -68 67 0 5 122 37 128 33 2 -1 -8 -22 -23
-47z m58 -113 c-4 -75 -10 -103 -19 -103 -10 0 -12 22 -8 103 3 56 8 118 11
137 l6 35 8 -35 c4 -19 5 -81 2 -137z m-341 142 l38 -7 -28 -39 c-15 -21 -31
-37 -37 -35 -11 3 -55 75 -55 90 0 4 10 6 23 3 12 -3 39 -9 59 -12z m-90 -126
c2 -59 -1 -98 -7 -100 -6 -3 -11 38 -13 106 -2 69 1 106 7 100 5 -6 11 -53 13
-106z m248 80 c0 -30 -45 -47 -78 -28 -42 23 -34 43 18 49 54 7 60 5 60 -21z
m-126 -125 c-9 -44 -21 -83 -25 -88 -4 -4 -21 -5 -37 -1 -30 6 -30 6 -34 88
-2 45 -3 84 0 87 2 3 12 -6 22 -20 15 -20 21 -22 34 -11 8 7 18 22 22 33 5 18
8 19 21 5 14 -13 13 -23 -3 -93z m261 24 c-4 -46 -12 -89 -17 -95 -6 -7 -25
-13 -43 -13 -32 0 -33 1 -49 71 -9 39 -16 77 -16 85 0 26 20 25 45 -3 l26 -28
27 32 c15 18 29 33 31 33 1 0 0 -37 -4 -82z m154 -77 c-12 -115 -14 -121 -35
-121 -28 0 -40 16 -25 34 6 7 18 44 26 82 20 87 36 137 42 131 2 -3 -1 -59 -8
-126z m-760 85 c31 -18 100 -57 153 -86 54 -28 100 -56 103 -60 3 -5 -14 -14
-37 -20 -24 -6 -50 -14 -58 -17 -37 -14 -96 -20 -112 -12 -12 6 -25 6 -38 -1
-12 -6 -20 -7 -20 -1 0 5 -15 19 -33 30 l-33 20 -120 -35 c-65 -20 -122 -39
-127 -43 -4 -4 12 -20 35 -35 37 -24 47 -27 75 -18 26 8 33 7 33 -3 0 -13
-140 -62 -285 -101 l-49 -13 -66 47 c-36 27 -120 88 -187 137 -67 49 -120 92
-117 96 2 4 33 10 68 14 64 6 106 -4 106 -25 0 -13 -47 -13 -55 0 -8 12 -38
13 -33 1 3 -9 106 -95 156 -130 l34 -24 71 20 c40 11 151 43 247 70 96 28 215
61 263 74 50 13 86 27 84 33 -2 6 -38 32 -81 57 -94 56 -96 59 -61 59 15 0 53
-15 84 -34z m470 -62 c29 -116 28 -134 -14 -174 l-35 -34 -41 40 -40 41 20 80
c12 45 21 92 21 105 0 32 4 35 39 30 27 -4 30 -9 50 -88z m-594 77 c-9 -8
-166 -49 -266 -70 -19 -4 -41 -11 -48 -15 -6 -4 -19 -2 -28 6 -11 8 -14 9 -10
1 5 -8 -5 -14 -30 -18 -21 -4 -51 -11 -68 -15 -104 -29 -109 -30 -124 -15 -12
12 -10 15 15 20 16 3 52 12 79 19 96 26 281 67 345 77 35 6 66 12 69 15 2 2
20 4 40 4 21 0 31 -4 26 -9z m-829 -106 c-4 -13 -26 64 -25 90 0 11 7 -2 15
-30 7 -27 12 -54 10 -60z m884 76 c0 -5 -12 -11 -27 -14 -16 -2 -55 -12 -88
-22 -33 -9 -78 -22 -100 -27 -22 -5 -49 -12 -60 -15 -11 -2 -36 -8 -55 -13
-19 -5 -69 -18 -110 -29 -129 -36 -200 -49 -206 -39 -9 14 17 29 39 24 9 -2
17 0 17 6 0 6 12 8 27 5 16 -3 32 1 41 10 8 8 26 13 39 10 12 -2 23 0 23 4 0
5 13 9 29 9 17 0 33 5 36 10 3 6 17 7 31 4 15 -4 24 -2 24 6 0 8 11 11 30 8
18 -3 35 1 41 9 6 7 23 13 38 14 14 0 62 11 106 24 87 25 125 30 125 16z m50
-30 c0 -4 -21 -14 -47 -20 -78 -20 -114 -30 -190 -52 -40 -11 -76 -18 -82 -15
-5 3 -11 2 -13 -3 -1 -5 -16 -12 -33 -14 -16 -3 -61 -15 -100 -27 -38 -12 -92
-28 -118 -36 -47 -14 -67 -12 -67 7 0 5 16 9 35 9 19 0 35 4 35 9 0 8 66 23
108 23 13 0 22 6 22 15 0 11 7 13 30 8 19 -4 30 -3 30 4 0 6 13 11 29 11 17 0
33 5 36 11 4 5 17 9 28 7 12 -1 27 0 32 4 6 3 48 16 95 27 47 12 99 26 115 31
41 11 55 12 55 1z m45 -30 c-8 -8 -176 -56 -498 -143 -33 -9 -58 -6 -46 6 4 4
358 101 404 111 11 2 40 10 65 18 53 18 88 21 75 8z m-749 -192 c116 -87 190
-149 192 -161 3 -14 -43 16 -155 102 -87 67 -175 134 -195 148 -21 15 -37 33
-38 40 0 6 2 12 4 12 2 0 88 -63 192 -141z m1371 130 c17 -17 4 -39 -23 -39
-28 0 -44 28 -23 41 19 12 33 11 46 -2z m-79 -26 c2 -8 -6 -13 -22 -13 -17 0
-26 5 -26 16 0 19 41 16 48 -3z m-618 -18 l25 -13 -30 -12 c-16 -6 -43 -14
-60 -17 -16 -4 -39 -12 -50 -19 -38 -23 -80 -26 -104 -7 -22 18 -22 18 81 50
122 37 107 35 138 18z m310 2 c0 -8 -29 -25 -65 -39 -36 -15 -65 -22 -65 -17
0 5 0 12 1 17 0 4 28 16 62 28 34 12 63 22 65 23 1 0 2 -5 2 -12z m76 -48 c16
-17 42 -40 57 -51 l28 -20 28 26 c15 14 30 24 33 20 4 -3 16 8 29 25 22 29 26
31 91 31 64 0 68 -1 68 -23 0 -13 6 -29 13 -36 10 -11 9 -14 -2 -18 -7 -3 -49
-36 -93 -74 -44 -38 -86 -69 -94 -69 -8 0 -14 10 -14 26 0 18 14 39 48 70 54
50 51 54 -18 19 -66 -34 -127 -33 -186 1 -56 33 -66 26 -20 -14 37 -32 56 -62
56 -86 0 -26 -29 -18 -68 18 -20 19 -60 50 -89 68 -28 18 -52 35 -53 38 0 5
136 76 151 79 3 0 18 -13 35 -30z m-866 1 c0 -12 -78 -36 -87 -27 -10 10 2 18
39 27 46 11 48 11 48 0z m591 -17 c8 -20 6 -30 -6 -42 -18 -19 -30 -8 -40 37
-6 28 -4 32 14 32 14 0 25 -9 32 -27z m663 21 c16 -6 23 -34 8 -34 -10 0 -32
22 -32 32 0 10 3 10 24 2z m-738 -30 c20 -29 9 -46 -24 -38 -14 4 -22 14 -22
28 0 43 22 48 46 10z m-80 -19 c7 -18 -47 -67 -60 -55 -14 14 14 70 36 70 10
0 21 -7 24 -15z m239 -29 c19 -8 35 -22 35 -30 0 -9 7 -16 15 -16 14 0 103
-60 104 -71 1 -3 -34 -9 -76 -15 l-76 -10 -16 30 c-9 17 -30 45 -47 63 -17 18
-29 35 -26 37 9 10 81 -34 87 -54 3 -11 10 -20 15 -20 5 0 12 -9 15 -21 4 -11
9 -18 11 -16 3 2 -1 17 -8 33 -18 41 -35 62 -73 89 -26 19 -4 19 40 1z m609 3
c36 -10 37 -11 19 -24 -10 -7 -28 -13 -38 -12 -20 2 -65 -55 -65 -81 0 -9 14
6 31 32 16 27 33 46 36 42 3 -3 -1 -14 -10 -24 -9 -10 -21 -32 -27 -48 l-11
-30 -72 8 c-40 5 -76 10 -81 11 -5 2 15 22 45 45 30 23 67 54 84 67 33 28 36
29 89 14z m-950 -48 c-14 -12 -305 -103 -311 -97 -12 11 8 36 29 37 13 0 82
20 153 43 114 37 158 42 129 17z m225 8 c41 -25 67 -54 80 -91 l10 -28 -55 0
c-65 0 -196 19 -207 30 -12 11 18 75 44 94 32 22 87 20 128 -5z m912 -18 c52
-52 52 -76 -1 -85 -81 -13 -217 -19 -223 -9 -10 15 36 86 72 110 21 14 49 23
74 23 32 0 46 -7 78 -39z m-495 -48 c-1 -40 -3 -43 -28 -43 -26 0 -28 3 -28
43 0 39 2 42 28 43 28 1 29 -1 28 -43z m-88 -50 c-5 -30 -148 -55 -323 -57
-160 -1 -210 9 -198 40 4 11 13 14 32 10 74 -18 249 -17 356 2 142 25 137 25
133 5z m252 -8 c104 -16 265 -19 320 -6 19 5 42 10 50 12 10 3 15 -3 15 -16 0
-51 -196 -63 -398 -25 -64 12 -120 26 -123 31 -9 15 6 30 24 25 10 -3 60 -12
112 -21z"/>
<path d="M1510 2181 c-53 -7 -54 -7 -28 -19 15 -6 55 -13 88 -16 33 -3 65 -8
72 -12 10 -6 11 -5 1 8 -26 31 26 38 104 13 70 -23 102 -42 156 -93 28 -28 47
-40 47 -31 0 30 -62 89 -127 121 -60 29 -76 33 -162 34 -53 1 -121 -1 -151 -5z"/>
<path d="M1245 2104 c-40 -10 -88 -14 -143 -11 -77 3 -82 2 -57 -10 33 -18
155 -18 220 -2 29 7 82 10 139 6 59 -4 114 -1 156 8 l65 13 -95 -1 c-52 -1
-124 2 -160 6 -46 5 -83 2 -125 -9z"/>
<path d="M1208 1945 c-14 -8 -65 -24 -113 -35 -103 -24 -129 -37 -175 -85
l-35 -37 65 40 c37 24 99 50 145 63 83 22 129 42 140 59 8 13 6 12 -27 -5z"/>
<path d="M1702 1880 c-19 -30 -50 -62 -79 -80 -26 -16 -43 -30 -39 -30 14 0
86 43 86 52 0 4 7 8 15 8 8 0 19 10 26 21 12 23 30 79 25 79 -2 0 -17 -22 -34
-50z"/>
<path d="M1430 1860 c-30 -17 -61 -30 -69 -30 -8 0 -11 -3 -8 -6 9 -9 86 21
117 46 34 27 25 24 -40 -10z"/>
<path d="M2136 1856 c28 -13 55 -29 58 -35 9 -14 26 -15 26 -1 0 15 -84 60
-111 59 -18 0 -12 -6 27 -23z"/>
<path d="M1133 1685 c-100 -31 -163 -85 -202 -176 -20 -47 -39 -144 -23 -121
6 9 11 0 15 -32 8 -58 46 -133 89 -175 50 -50 104 -73 181 -79 61 -4 73 -2
132 27 147 73 208 244 137 385 -16 31 -26 56 -22 56 4 0 12 -12 19 -26 6 -15
14 -24 18 -21 9 10 -58 92 -95 118 -44 30 -128 58 -172 58 -19 0 -54 -6 -77
-14z m169 -61 c53 -21 113 -76 140 -129 30 -56 30 -165 1 -221 -26 -49 -92
-110 -142 -131 -50 -22 -139 -19 -192 4 -54 24 -122 97 -139 148 -16 48 -9
170 13 210 22 43 91 108 129 122 48 17 141 15 190 -3z"/>
<path d="M1200 1549 l-25 -10 33 -14 c34 -15 52 -47 44 -78 -7 -28 -48 -50
-77 -43 -23 6 -25 4 -25 -29 0 -92 105 -146 187 -95 90 55 74 181 -28 211 -52
16 -52 39 2 39 51 0 75 -13 95 -52 42 -82 36 -148 -19 -206 -62 -64 -149 -67
-216 -6 -55 49 -67 83 -51 140 16 56 -1 85 -19 33 -15 -44 -14 -104 3 -137 60
-115 209 -137 302 -44 82 81 52 244 -53 287 -40 17 -116 19 -153 4z m154 -123
c16 -35 12 -69 -13 -98 -21 -24 -25 -23 -56 18 -24 32 -26 38 -14 65 27 66 56
71 83 15z m-96 -100 c2 -10 -1 -23 -7 -29 -14 -14 -41 9 -41 35 0 26 43 21 48
-6z"/>
<path d="M1865 1687 c-80 -27 -185 -113 -169 -139 4 -6 2 -8 -3 -5 -13 8 -26
-20 -16 -35 3 -6 1 -8 -4 -5 -15 10 -37 -83 -24 -96 6 -6 11 -27 11 -47 0 -47
52 -151 92 -185 116 -97 265 -98 374 -2 64 56 94 123 94 209 0 88 -28 162 -80
213 -21 21 -37 42 -34 47 9 15 -86 50 -145 54 -31 2 -74 -2 -96 -9z m182 -68
c109 -53 168 -197 131 -321 -15 -51 -77 -121 -131 -147 -132 -64 -309 19 -353
165 -18 59 -18 78 1 141 18 61 79 133 137 162 58 29 156 29 215 0z"/>
<path d="M2079 1546 c19 -20 37 -36 39 -36 10 0 -46 64 -59 68 -8 3 2 -12 20
-32z"/>
<path d="M1794 1546 c-101 -44 -125 -199 -45 -290 27 -30 88 -56 134 -56 123
0 207 121 166 239 -12 35 -29 42 -29 12 0 -24 -36 -51 -66 -51 -23 0 -64 42
-64 65 0 21 41 65 61 65 10 0 19 4 19 9 0 23 -127 28 -176 7z m81 -26 c3 -5
-11 -16 -32 -25 -52 -22 -71 -42 -83 -86 -27 -100 73 -177 173 -135 38 15 67
61 67 104 0 11 6 25 14 31 19 16 29 -25 16 -68 -24 -84 -96 -130 -181 -116
-102 17 -160 139 -111 234 25 51 118 92 137 61z m-7 -92 c17 -41 17 -43 0 -63
-9 -11 -24 -29 -31 -39 -14 -19 -15 -19 -32 7 -30 46 -6 137 37 137 4 0 16
-19 26 -42z m66 -93 c7 -20 -17 -47 -37 -39 -20 7 -23 50 -4 57 17 6 34 -2 41
-18z"/>
<path d="M2146 1600 c21 -21 48 -58 61 -82 28 -55 30 -42 2 15 -22 44 -76 107
-92 107 -5 0 8 -18 29 -40z"/>
<path d="M1699 1194 c16 -33 69 -74 130 -102 98 -45 243 -20 324 56 46 43 30
46 -20 3 -122 -101 -288 -92 -403 22 -23 23 -38 32 -31 21z"/>
<path d="M2631 1466 c-32 -34 -80 -53 -91 -36 -6 9 -10 7 -15 -9 -8 -27 1 -39
17 -23 7 7 22 12 34 12 25 0 118 79 93 80 -8 0 -26 -11 -38 -24z"/>
<path d="M1520 1129 c0 -13 31 -39 46 -39 23 0 54 19 54 33 0 8 -18 12 -50 13
-28 0 -50 -3 -50 -7z"/>
<path d="M1373 1033 c-13 -8 -23 -22 -23 -30 0 -12 3 -13 14 -4 10 9 16 7 27
-5 62 -75 274 -83 355 -12 19 17 38 26 48 22 30 -12 16 13 -19 31 -36 20 -56
15 -36 -9 19 -23 -67 -50 -159 -51 -92 0 -194 30 -167 50 17 12 13 25 -7 24
-6 0 -21 -7 -33 -16z"/>
<path d="M265 1059 c-24 -5 -18 -7 25 -8 30 0 62 4 70 9 17 12 -42 11 -95 -1z"/>
<path d="M648 1064 c-4 -3 -21 -7 -40 -8 -57 -5 -108 -18 -108 -28 0 -6 8 -7
18 -3 9 3 46 9 82 12 72 6 78 9 64 23 -6 6 -13 8 -16 4z"/>
<path d="M410 1020 c0 -13 50 -13 70 0 11 7 4 10 -27 10 -24 0 -43 -4 -43 -10z"/>
<path d="M274 1011 c-16 -16 2 -22 44 -16 74 11 87 26 19 23 -32 -2 -61 -5
-63 -7z"/>
<path d="M445 980 c-22 -4 -66 -11 -99 -15 -32 -4 -54 -10 -50 -15 7 -5 172
10 202 19 6 2 1 21 -5 20 -5 -1 -26 -5 -48 -9z"/>
<path d="M630 967 c0 -13 -9 -17 -35 -17 -19 0 -35 -5 -35 -10 0 -14 68 -6 83
9 8 8 8 14 -1 23 -9 9 -12 8 -12 -5z"/>
<path d="M450 929 c-19 -4 -59 -9 -87 -10 -35 -1 -53 -6 -53 -15 0 -6 8 -11
18 -9 9 2 55 9 102 16 99 14 145 28 90 27 -19 0 -51 -4 -70 -9z"/>
<path d="M435 878 c-86 -11 -90 -12 -81 -26 3 -6 26 -6 58 -1 29 5 68 12 86
15 17 3 32 9 32 14 0 6 -3 9 -7 9 -5 -1 -44 -6 -88 -11z"/>
<path d="M543 877 c2 -7 26 -11 60 -10 82 1 87 2 87 12 0 5 -34 9 -76 9 -52 0
-74 -3 -71 -11z"/>
<path d="M469 826 c-2 -3 -30 -6 -62 -7 -32 -1 -61 -7 -64 -12 -8 -13 168 1
182 14 5 5 -2 9 -21 9 -17 0 -33 -2 -35 -4z"/>
<path d="M765 814 c-33 -7 -85 -16 -115 -20 -30 -3 -59 -10 -65 -15 -13 -13
79 -4 165 14 36 8 87 13 114 11 45 -4 48 -3 30 11 -23 18 -51 18 -129 -1z"/>
<path d="M529 776 c-4 -4 -108 -15 -146 -16 -13 0 -23 -5 -23 -11 0 -8 16 -10
53 -5 28 4 72 9 97 12 47 6 80 24 44 24 -12 0 -23 -2 -25 -4z"/>
<path d="M680 749 c0 -6 13 -8 31 -5 45 7 48 16 6 16 -20 0 -37 -5 -37 -11z"/>
<path d="M619 740 c-20 -6 -75 -14 -136 -20 -2 0 -3 -5 -3 -11 0 -6 7 -8 17
-5 9 4 32 9 52 12 80 10 101 15 106 24 7 11 0 11 -36 0z"/>
<path d="M383 703 c-25 -5 -32 -23 -9 -23 29 0 76 13 76 21 0 9 -27 10 -67 2z"/>
<path d="M643 693 c-13 -2 -23 -9 -23 -15 0 -5 7 -7 16 -4 9 3 29 6 45 6 16 0
29 5 29 10 0 10 -25 11 -67 3z"/>
<path d="M388 653 c-10 -2 -18 -9 -18 -14 0 -11 80 -1 95 12 9 9 -45 11 -77 2z"/>
<path d="M1104 795 c12 -39 18 -42 37 -19 11 14 9 19 -11 35 -35 26 -39 24
-26 -16z"/>
<path d="M1848 252 c-27 -16 -48 -58 -48 -91 1 -9 7 -1 15 17 8 19 29 47 46
63 34 32 29 36 -13 11z"/>
<path d="M933 2278 c-23 -30 -26 -42 -5 -24 12 10 30 16 41 13 14 -3 18 -1 14
9 -6 17 -37 18 -50 2z"/>
<path d="M2164 962 c-25 -16 -50 -44 -62 -69 -17 -34 -35 -52 -102 -101 -2 -2
2 -7 10 -12 23 -15 66 -12 80 5 11 14 10 14 -15 5 -40 -15 -42 -5 -5 27 18 15
39 42 47 61 8 18 33 51 56 73 49 46 47 48 -9 11z"/>
<path d="M2723 841 c-13 -17 -60 -48 -115 -75 -68 -34 -99 -55 -116 -81 -12
-19 -27 -35 -33 -35 -5 0 -8 -4 -4 -10 8 -12 43 18 61 53 8 15 23 27 34 27 11
0 20 4 20 8 0 5 18 14 40 21 22 6 40 16 40 21 0 6 8 10 18 10 21 1 53 26 76
63 24 36 6 35 -21 -2z"/>
<path d="M256 317 c3 -8 22 -23 42 -35 20 -12 54 -37 75 -57 21 -19 42 -35 46
-35 4 0 16 -10 27 -21 24 -27 104 -82 110 -77 2 3 -17 20 -44 39 -26 18 -90
68 -142 109 -112 90 -122 96 -114 77z"/>
</g>
</svg>
